<svg width="169" height="169" viewBox="0 0 169 169" fill="none" xmlns="http://www.w3.org/2000/svg">
<g clip-path="url(#clip0_1_6)">
<path d="M84.5 10.5625C70.4933 10.5625 57.0602 16.1267 47.1559 26.0309C37.2517 35.9352 31.6875 49.3683 31.6875 63.375V73.9375H42.25C45.0513 73.9375 47.738 75.0503 49.7188 77.0312C51.6997 79.012 52.8125 81.6987 52.8125 84.5V116.188C52.8125 118.989 51.6997 121.675 49.7188 123.656C47.738 125.637 45.0513 126.75 42.25 126.75H31.6875C28.8862 126.75 26.1995 125.637 24.2187 123.656C22.2378 121.675 21.125 118.989 21.125 116.188V63.375C21.125 55.0525 22.7642 46.8114 25.9491 39.1224C29.134 31.4334 33.8022 24.447 39.6871 18.5621C45.572 12.6772 52.5584 8.00903 60.2474 4.82413C67.9364 1.63924 76.1775 0 84.5 0C92.8225 0 101.064 1.63924 108.753 4.82413C116.442 8.00903 123.428 12.6772 129.313 18.5621C135.198 24.447 139.866 31.4334 143.051 39.1224C146.236 46.8114 147.875 55.0525 147.875 63.375V126.75C147.875 133.753 145.093 140.47 140.141 145.422C135.189 150.374 128.472 153.156 121.469 153.156H98.9284C98.0013 154.762 96.668 156.095 95.0623 157.022C93.4567 157.949 91.6353 158.437 89.7812 158.438H79.2188C76.4174 158.438 73.7308 157.325 71.7499 155.344C69.7691 153.363 68.6562 150.676 68.6562 147.875C68.6562 145.074 69.7691 142.387 71.7499 140.406C73.7308 138.425 76.4174 137.312 79.2188 137.312H89.7812C91.6353 137.313 93.4567 137.801 95.0623 138.728C96.668 139.655 98.0013 140.988 98.9284 142.594H121.469C125.671 142.594 129.701 140.925 132.672 137.953C135.643 134.982 137.312 130.952 137.312 126.75H126.75C123.949 126.75 121.262 125.637 119.281 123.656C117.3 121.675 116.188 118.989 116.188 116.188V84.5C116.188 81.6987 117.3 79.012 119.281 77.0312C121.262 75.0503 123.949 73.9375 126.75 73.9375H137.312V63.375C137.312 56.4396 135.946 49.572 133.292 43.1645C130.638 36.757 126.748 30.935 121.844 26.0309C116.94 21.1268 111.118 17.2367 104.71 14.5826C98.303 11.9285 91.4354 10.5625 84.5 10.5625V10.5625Z" fill="#131313"/>
</g>
<defs>
<clipPath id="clip0_1_6">
<rect width="169" height="169" fill="white"/>
</clipPath>
</defs>
</svg>
