<svg width="169" height="169" viewBox="0 0 169 169" fill="none" xmlns="http://www.w3.org/2000/svg">
<path d="M91.5417 112.667H77.4583C73.5854 112.667 70.4167 109.498 70.4167 105.625H21.1954V133.792C21.1954 141.537 27.5329 147.875 35.2788 147.875H133.792C141.538 147.875 147.875 141.537 147.875 133.792V105.625H98.5833C98.5833 109.498 95.4146 112.667 91.5417 112.667ZM140.833 49.2917H112.667C112.667 33.7296 100.062 21.125 84.5 21.125C68.9379 21.125 56.3333 33.7296 56.3333 49.2917H28.1667C20.4208 49.2917 14.0833 55.6292 14.0833 63.375V84.5C14.0833 92.3162 20.3504 98.5833 28.1667 98.5833H70.4167V91.5417C70.4167 87.6687 73.5854 84.5 77.4583 84.5H91.5417C95.4146 84.5 98.5833 87.6687 98.5833 91.5417V98.5833H140.833C148.579 98.5833 154.917 92.2458 154.917 84.5V63.375C154.917 55.6292 148.579 49.2917 140.833 49.2917ZM70.4167 49.2917C70.4167 41.5458 76.7542 35.2083 84.5 35.2083C92.2458 35.2083 98.5833 41.5458 98.5833 49.2917H70.3463H70.4167Z" fill="#131313"/>
</svg>
